HIERARCHY
ROOT Hips
{
	OFFSET 0.000000 100.481300 0.000000
	CHANNELS 6 Xposition Yposition Zposition Xrotation Yrotation Zrotation
	JOINT Spine
	{
		OFFSET -0.279200 12.230698 -2.892100
		CHANNELS 3 Xrotation Yrotation Zrotation
		JOINT Spine1
		{
			OFFSET -0.325700 14.269203 -3.374200
			CHANNELS 3 Xrotation Yrotation Zrotation
			JOINT Spine2
			{
				OFFSET -0.372300 16.307602 -0.352600
				CHANNELS 3 Xrotation Yrotation Zrotation
				JOINT Neck
				{
					OFFSET -0.418800 17.814194 8.416900
					CHANNELS 3 Xrotation Yrotation Zrotation
					JOINT Head
					{
						OFFSET 0.000000 7.031097 3.806800
						CHANNELS 3 Xrotation Yrotation Zrotation
						JOINT HeadTop_End
						{
							OFFSET 0.000000 24.646606 12.978600
							CHANNELS 3 Xrotation Yrotation Zrotation
							End Site
							{
								OFFSET 0.000000 27.854965 0.000000
							}
						}
					}
				}
				JOINT LeftShoulder
				{
					OFFSET 16.952999 14.495407 -7.737500
					CHANNELS 3 Xrotation Yrotation Zrotation
					JOINT LeftArm
					{
						OFFSET 9.308998 -2.777710 0.208600
						CHANNELS 3 Xrotation Yrotation Zrotation
						JOINT LeftForeArm
						{
							OFFSET 29.972298 0.000000 0.000000
							CHANNELS 3 Xrotation Yrotation Zrotation
							JOINT LeftHand
							{
								OFFSET 26.026505 0.000000 0.000000
								CHANNELS 3 Xrotation Yrotation Zrotation
								JOINT LeftHandThumb1
								{
									OFFSET 12.240501 -7.147949 9.207150
									CHANNELS 3 Xrotation Yrotation Zrotation
									JOINT LeftHandThumb2
									{
										OFFSET 4.138618 -2.389435 2.389433
										CHANNELS 3 Xrotation Yrotation Zrotation
										JOINT LeftHandThumb3
										{
											OFFSET 2.726913 -1.574387 1.574386
											CHANNELS 3 Xrotation Yrotation Zrotation
											JOINT LeftHandThumb4
											{
												OFFSET 3.941010 -2.275345 2.275342
												CHANNELS 3 Xrotation Yrotation Zrotation
												End Site
												{
													OFFSET -0.005798 5.087799 0.009903
												}
											}
										}
									}
								}
								JOINT LeftHandIndex1
								{
									OFFSET 24.424698 -1.985611 5.953459
									CHANNELS 3 Xrotation Yrotation Zrotation
									JOINT LeftHandIndex2
									{
										OFFSET 6.426697 0.000000 0.000000
										CHANNELS 3 Xrotation Yrotation Zrotation
										JOINT LeftHandIndex3
										{
											OFFSET 5.337898 0.000000 0.000000
											CHANNELS 3 Xrotation Yrotation Zrotation
											JOINT LeftHandIndex4
											{
												OFFSET 4.409401 0.000000 0.000000
												CHANNELS 3 Xrotation Yrotation Zrotation
												End Site
												{
													OFFSET 0.000000 4.409363 0.014373
												}
											}
										}
									}
								}
								JOINT LeftHandMiddle1
								{
									OFFSET 23.810104 0.000000 0.000000
									CHANNELS 3 Xrotation Yrotation Zrotation
									JOINT LeftHandMiddle2
									{
										OFFSET 7.176498 0.000000 0.000000
										CHANNELS 3 Xrotation Yrotation Zrotation
										JOINT LeftHandMiddle3
										{
											OFFSET 6.774902 0.000000 0.000000
											CHANNELS 3 Xrotation Yrotation Zrotation
											JOINT LeftHandMiddle4
											{
												OFFSET 5.403328 0.000000 0.000000
												CHANNELS 3 Xrotation Yrotation Zrotation
												End Site
												{
													OFFSET -0.027702 5.403244 0.017414
												}
											}
										}
									}
								}
								JOINT LeftHandRing1
								{
									OFFSET 22.908401 -0.839279 -6.020567
									CHANNELS 3 Xrotation Yrotation Zrotation
									JOINT LeftHandRing2
									{
										OFFSET 6.337502 0.000000 0.000000
										CHANNELS 3 Xrotation Yrotation Zrotation
										JOINT LeftHandRing3
										{
											OFFSET 5.779297 0.000000 0.000000
											CHANNELS 3 Xrotation Yrotation Zrotation
											JOINT LeftHandRing4
											{
												OFFSET 4.965698 0.000000 0.000000
												CHANNELS 3 Xrotation Yrotation Zrotation
												End Site
												{
													OFFSET 0.000000 4.965668 0.016186
												}
											}
										}
									}
								}
								JOINT LeftHandPinky1
								{
									OFFSET 20.037003 -1.530319 -10.950146
									CHANNELS 3 Xrotation Yrotation Zrotation
									JOINT LeftHandPinky2
									{
										OFFSET 5.254700 0.000000 0.000000
										CHANNELS 3 Xrotation Yrotation Zrotation
										JOINT LeftHandPinky3
										{
											OFFSET 4.810204 0.000000 0.000000
											CHANNELS 3 Xrotation Yrotation Zrotation
											JOINT LeftHandPinky4
											{
												OFFSET 3.647202 0.000000 0.000000
												CHANNELS 3 Xrotation Yrotation Zrotation
												End Site
												{
													OFFSET 0.000000 3.647186 0.011889
												}
											}
										}
									}
								}
							}
						}
					}
				}
				JOINT RightShoulder
				{
					OFFSET -15.141001 14.495407 -7.737500
					CHANNELS 3 Xrotation Yrotation Zrotation
					JOINT RightArm
					{
						OFFSET -9.308998 -2.777710 0.208500
						CHANNELS 3 Xrotation Yrotation Zrotation
						JOINT RightForeArm
						{
							OFFSET -29.972300 0.000000 0.000000
							CHANNELS 3 Xrotation Yrotation Zrotation
							JOINT RightHand
							{
								OFFSET -26.026505 0.000000 0.000000
								CHANNELS 3 Xrotation Yrotation Zrotation
								JOINT RightHandThumb1
								{
									OFFSET -12.240601 -7.148026 9.207092
									CHANNELS 3 Xrotation Yrotation Zrotation
									JOINT RightHandThumb2
									{
										OFFSET -4.138618 -2.389435 2.389433
										CHANNELS 3 Xrotation Yrotation Zrotation
										JOINT RightHandThumb3
										{
											OFFSET -2.726974 -1.574417 1.574421
											CHANNELS 3 Xrotation Yrotation Zrotation
											JOINT RightHandThumb4
											{
												OFFSET -3.941010 -2.275345 2.275343
												CHANNELS 3 Xrotation Yrotation Zrotation
												End Site
												{
													OFFSET 0.005814 5.087799 0.009927
												}
											}
										}
									}
								}
								JOINT RightHandIndex1
								{
									OFFSET -24.424698 -1.985657 5.953444
									CHANNELS 3 Xrotation Yrotation Zrotation
									JOINT RightHandIndex2
									{
										OFFSET -6.426697 0.000000 0.000000
										CHANNELS 3 Xrotation Yrotation Zrotation
										JOINT RightHandIndex3
										{
											OFFSET -5.337898 0.000000 0.000000
											CHANNELS 3 Xrotation Yrotation Zrotation
											JOINT RightHandIndex4
											{
												OFFSET -4.409401 0.000000 0.000000
												CHANNELS 3 Xrotation Yrotation Zrotation
												End Site
												{
													OFFSET 0.000000 4.409363 0.014408
												}
											}
										}
									}
								}
								JOINT RightHandMiddle1
								{
									OFFSET -23.810097 0.000000 0.000000
									CHANNELS 3 Xrotation Yrotation Zrotation
									JOINT RightHandMiddle2
									{
										OFFSET -7.176498 0.000000 0.000000
										CHANNELS 3 Xrotation Yrotation Zrotation
										JOINT RightHandMiddle3
										{
											OFFSET -6.774902 0.000000 0.000000
											CHANNELS 3 Xrotation Yrotation Zrotation
											JOINT RightHandMiddle4
											{
												OFFSET -5.403328 0.000000 0.000000
												CHANNELS 3 Xrotation Yrotation Zrotation
												End Site
												{
													OFFSET 0.027702 5.403244 0.017457
												}
											}
										}
									}
								}
								JOINT RightHandRing1
								{
									OFFSET -22.908302 -0.839325 -6.020576
									CHANNELS 3 Xrotation Yrotation Zrotation
									JOINT RightHandRing2
									{
										OFFSET -6.337502 0.000000 0.000000
										CHANNELS 3 Xrotation Yrotation Zrotation
										JOINT RightHandRing3
										{
											OFFSET -5.779297 0.000000 0.000000
											CHANNELS 3 Xrotation Yrotation Zrotation
											JOINT RightHandRing4
											{
												OFFSET -4.965698 0.000000 0.000000
												CHANNELS 3 Xrotation Yrotation Zrotation
												End Site
												{
													OFFSET 0.000000 4.965668 0.016226
												}
											}
										}
									}
								}
								JOINT RightHandPinky1
								{
									OFFSET -20.037003 -1.530334 -10.950259
									CHANNELS 3 Xrotation Yrotation Zrotation
									JOINT RightHandPinky2
									{
										OFFSET -5.254700 0.000000 0.000000
										CHANNELS 3 Xrotation Yrotation Zrotation
										JOINT RightHandPinky3
										{
											OFFSET -4.810204 0.000000 0.000000
											CHANNELS 3 Xrotation Yrotation Zrotation
											JOINT RightHandPinky4
											{
												OFFSET -3.647202 0.000000 0.000000
												CHANNELS 3 Xrotation Yrotation Zrotation
												End Site
												{
													OFFSET 0.000000 3.647186 0.011917
												}
											}
										}
									}
								}
							}
						}
					}
				}
			}
		}
	}
	JOINT LeftUpLeg
	{
		OFFSET 15.427100 -6.655098 0.678600
		CHANNELS 3 Xrotation Yrotation Zrotation
		JOINT LeftLeg
		{
			OFFSET 4.081073 -39.591068 13.024000
			CHANNELS 3 Xrotation Yrotation Zrotation
			JOINT LeftFoot
			{
				OFFSET -4.081074 -37.707932 -15.979700
				CHANNELS 3 Xrotation Yrotation Zrotation
				JOINT LeftToeBase
				{
					OFFSET 5.346399 -15.068900 20.645000
					CHANNELS 3 Xrotation Yrotation Zrotation
					JOINT LeftToe_End
					{
						OFFSET 2.754700 0.931300 11.300900
						CHANNELS 3 Xrotation Yrotation Zrotation
						End Site
						{
							OFFSET 0.000000 11.669021 0.000000
						}
					}
				}
			}
		}
	}
	JOINT RightUpLeg
	{
		OFFSET -15.569500 -6.655098 0.678600
		CHANNELS 3 Xrotation Yrotation Zrotation
		JOINT RightLeg
		{
			OFFSET -4.081825 -39.591045 13.023800
			CHANNELS 3 Xrotation Yrotation Zrotation
			JOINT RightFoot
			{
				OFFSET 4.081824 -37.707954 -15.979600
				CHANNELS 3 Xrotation Yrotation Zrotation
				JOINT RightToeBase
				{
					OFFSET -5.346400 -15.068900 20.645000
					CHANNELS 3 Xrotation Yrotation Zrotation
					JOINT RightToe_End
					{
						OFFSET -2.754700 0.931300 11.300900
						CHANNELS 3 Xrotation Yrotation Zrotation
						End Site
						{
							OFFSET 0.000000 11.669021 0.000000
						}
					}
				}
			}
		}
	}
}
MOTION
Frames: 5
Frame Time: 0.033333
-9.030502 67.382172 9.910576 26.087225 -0.353883 -2.126994 12.037449 3.174021 0.947665 10.069584 1.548782 2.955763 10.092129 1.548923 2.956224 -27.421905 -0.096771 4.666271 -13.599087 2.692237 -5.880627 0.000001 0.000000 0.000000 9.969875 -25.682526 25.198279 -70.835147 -42.180817 -13.019350 -37.272158 -35.286280 -7.783790 -21.622992 2.286917 46.112185 -5.987726 -7.468055 5.315409 -3.749501 5.563016 -8.094528 -5.059018 -15.441541 -6.697038 0.000001 0.000001 -0.000000 9.870563 -23.257639 5.469707 0.011796 0.253922 -9.280494 0.150575 0.198128 4.641630 -0.000002 0.000000 -0.000002 8.902052 -6.148920 3.759753 0.072828 0.550274 -8.627676 -0.033208 -0.030875 3.565803 -0.000004 0.000002 -0.000002 9.286315 12.381657 -5.711034 -0.008014 0.147003 -5.824997 0.060513 0.660896 -5.931073 0.000000 -0.000000 -0.000001 11.266533 24.853224 -7.949025 0.012584 0.128973 -9.033021 0.024077 0.126619 -10.245180 -0.000002 -0.000001 -0.000001 -3.297245 19.874665 -27.548935 -92.098223 26.534044 29.938533 161.862042 156.337293 -169.180220 -22.226021 8.950878 -29.761907 -18.490198 13.113347 -22.830170 -3.749983 -5.566316 8.090338 -1.559977 6.667526 1.462450 -0.000002 -0.000000 0.000006 8.988561 14.938821 2.075107 0.004666 -0.221465 2.261434 -0.025124 -0.187632 2.420675 0.000001 0.000003 -0.000002 8.585294 1.398144 4.518851 0.028706 -0.536703 4.398413 0.027000 0.005874 4.303385 -0.000001 0.000001 -0.000001 10.594702 -16.183273 16.187014 0.004870 -0.234401 16.247429 0.101554 -0.556183 16.392285 0.000000 0.000000 -0.000001 11.847681 -25.584796 22.384056 0.053123 -0.211597 24.817127 0.094572 -0.175561 25.784094 0.000000 0.000001 -0.000000 -94.940797 -11.928906 2.378023 61.837295 -19.791312 -13.577548 13.149975 -10.451047 10.761382 -6.766243 15.073051 -8.527316 -0.000000 -0.000000 -0.000000 -11.511308 -10.362737 -7.672846 56.425590 -2.687902 -8.236325 -42.204398 -9.446867 19.412128 -30.219578 2.215132 3.890087 -0.000000 0.000000 -0.000000 
-8.965284 67.304840 10.320831 25.669832 -0.975580 -2.208677 12.075215 3.301601 0.952064 10.144311 1.775426 2.851629 10.166757 1.775563 2.852084 -28.357354 -0.306109 4.753574 -14.132587 2.685359 -5.820007 -0.000000 -0.000000 -0.000000 10.328425 -25.449625 25.831861 -72.368450 -41.227438 -14.660052 -37.606096 -35.693117 -8.765647 -19.917083 1.885125 46.048241 -5.815368 -7.222640 5.236063 -3.749662 5.562971 -8.094777 -5.067222 -15.459505 -6.708549 -0.000000 0.000004 -0.000000 9.932259 -23.459774 5.740837 0.011107 0.253021 -8.653709 0.143381 0.196349 4.522896 -0.000001 -0.000001 -0.000001 8.915688 -6.420565 3.797131 0.072626 0.546294 -7.840364 -0.025499 -0.028550 3.374126 0.000000 -0.000001 0.000000 9.282956 12.085984 -5.957881 -0.006717 0.149569 -6.082345 0.062369 0.662052 -6.194076 0.000001 -0.000000 -0.000001 11.301802 24.854061 -8.444554 0.013620 0.134553 -9.565523 0.026142 0.130144 -10.768136 0.000001 0.000002 -0.000000 -2.903520 20.612662 -28.350712 -94.912152 23.299664 30.754047 164.312946 154.963605 -169.510651 -22.290107 7.669970 -29.290324 -18.382438 12.764238 -22.960565 -3.751727 -5.563356 8.092248 -1.563745 6.676936 1.467541 -0.000001 0.000001 0.000001 8.994722 14.141537 2.058367 0.003909 -0.222145 2.270247 -0.027195 -0.187247 2.412254 -0.000001 0.000001 -0.000001 8.616848 0.589542 4.403780 0.029199 -0.535611 4.337059 0.026791 0.006735 4.256375 -0.000000 -0.000001 0.000002 10.731742 -16.988523 15.981644 0.006630 -0.232703 16.122069 0.100598 -0.555692 16.333241 0.000000 0.000000 -0.000001 11.758061 -25.702588 22.130516 0.053356 -0.210648 24.730933 0.094042 -0.175440 25.691027 0.000001 -0.000000 0.000002 -94.555862 -12.075607 2.941273 62.794136 -19.692801 -13.724107 12.768769 -10.604805 11.683617 -6.769608 15.447938 -9.016258 0.000000 0.000001 -0.000000 -10.573812 -10.241686 -7.742569 55.774823 -2.381097 -7.976286 -42.338150 -9.340633 19.381910 -30.541256 1.466545 3.816843 -0.000000 -0.000001 0.000000 
-8.848980 67.140060 10.435612 25.157680 -1.560260 -2.290777 12.078230 3.407226 0.900809 10.150092 1.947426 2.690181 10.172585 1.947566 2.690638 -29.105393 -0.722212 4.986823 -14.817008 2.626886 -5.733785 -0.000000 0.000000 0.000000 10.522911 -25.035410 26.342175 -74.166572 -40.326444 -16.865632 -35.704698 -36.323550 -8.897138 -18.070929 2.468907 47.218983 -5.739080 -7.016489 5.329690 -3.726412 5.611026 -8.072338 -5.032979 -15.384830 -6.661009 -0.000000 -0.000003 0.000002 10.057203 -23.592930 6.515094 0.010249 0.252158 -8.115913 0.134829 0.194727 4.404885 -0.000001 -0.000001 -0.000001 8.946131 -6.670402 4.344852 0.072451 0.542778 -7.155365 -0.020938 -0.028012 3.441162 0.000001 0.000000 -0.000002 9.229659 11.837064 -5.657439 -0.005881 0.149199 -5.834878 0.062423 0.661173 -5.983338 0.000003 0.000001 -0.000000 11.252111 24.843591 -8.427798 0.014620 0.137716 -9.680690 0.027623 0.131611 -10.864755 0.000002 0.000000 0.000000 -2.242620 21.548354 -29.544636 -97.146225 19.802081 30.838721 164.377628 153.612539 -168.576514 -19.653347 6.414576 -29.108156 -18.327293 12.643652 -23.083152 -3.728067 -5.612708 8.069606 -1.534604 6.590268 1.420767 0.000000 0.000003 0.000003 9.042860 13.367478 2.041400 0.003085 -0.222907 2.357594 -0.029049 -0.187264 2.486095 -0.000000 -0.000002 -0.000001 8.638022 -0.258814 4.375353 0.029601 -0.535705 4.423567 0.026473 0.006073 4.394682 -0.000001 -0.000001 0.000001 10.846769 -17.930076 15.964818 0.008133 -0.232030 16.217963 0.098387 -0.556913 16.508374 -0.000000 -0.000000 0.000002 11.590800 -25.967584 22.112758 0.054010 -0.210306 24.985901 0.094299 -0.176491 25.944024 -0.000001 0.000000 -0.000002 -94.343777 -12.179593 3.416165 63.582074 -19.592208 -13.863156 12.753022 -10.706278 12.441161 -6.771107 15.792692 -9.467056 0.000000 -0.000000 0.000000 -9.959556 -9.967836 -7.979352 55.682229 -2.146524 -7.598299 -42.629775 -9.092850 19.219621 -30.713605 0.493534 3.779261 -0.000000 -0.000001 -0.000000 
-8.701024 66.890450 10.252903 24.595390 -2.174484 -2.328219 12.067745 3.464224 0.768481 10.129751 2.014814 2.425534 10.152248 2.014955 2.425988 -29.809811 -1.129053 5.267883 -15.489831 2.500878 -5.445888 0.000000 0.000000 0.000000 10.699962 -24.504642 27.058578 -76.646935 -39.229694 -19.913623 -33.181322 -36.880047 -8.408963 -16.415796 3.415306 47.261289 -5.763691 -6.870232 5.596658 -3.669026 5.729329 -8.017880 -4.970953 -15.248852 -6.574614 0.000001 -0.000003 0.000000 10.213423 -23.537247 7.604871 0.008772 0.251483 -7.689259 0.126705 0.193438 4.251526 0.000001 -0.000003 -0.000001 8.977781 -6.808667 5.211727 0.072440 0.539829 -6.584398 -0.017339 -0.027926 3.583184 -0.000003 0.000001 0.000002 9.144805 11.675394 -5.009063 -0.005426 0.148067 -5.290364 0.061448 0.659282 -5.517584 -0.000001 -0.000000 0.000000 11.128007 24.832775 -8.084255 0.015576 0.139444 -9.592315 0.028861 0.132116 -10.765651 0.000002 -0.000001 0.000001 -1.312490 22.545751 -31.072235 -98.823862 16.384287 30.347944 164.230546 152.093396 -167.428741 -17.072377 5.323694 -29.159044 -18.193976 12.638558 -22.998567 -3.684653 -5.702250 8.027753 -1.483737 6.439910 1.340067 0.000000 0.000003 -0.000001 9.135295 12.864224 1.893076 0.002288 -0.223683 2.417275 -0.030455 -0.187438 2.558945 -0.000000 -0.000002 0.000002 8.634251 -0.789857 4.224216 0.029994 -0.535950 4.491510 0.026464 0.004883 4.555541 0.000001 -0.000001 -0.000001 10.819202 -18.548642 15.799619 0.008709 -0.230587 16.221643 0.096050 -0.558078 16.596993 -0.000001 0.000000 -0.000001 11.314735 -26.158340 21.904203 0.053997 -0.208267 25.122752 0.094645 -0.177191 26.142088 -0.000001 0.000001 0.000001 -94.320664 -12.294217 3.853103 64.207501 -19.448556 -13.994226 13.042369 -10.757290 12.967791 -6.766125 16.102116 -9.874101 -0.000000 -0.000000 -0.000000 -9.791917 -9.692841 -8.455629 56.162941 -1.897533 -7.181690 -43.045409 -8.655877 19.009144 -30.763725 -0.584361 3.755176 0.000000 0.000001 0.000000 
-8.518298 66.634354 9.841459 24.028705 -2.880814 -2.279806 12.076091 3.504822 0.564711 10.146900 2.056553 2.067180 10.169367 2.056688 2.067632 -30.189211 -1.341628 5.722699 -15.753871 2.418377 -4.988736 -0.000000 0.000000 0.000000 10.818515 -23.746182 28.083714 -79.216527 -38.162002 -23.281359 -33.471311 -36.771300 -8.816295 -15.107689 4.194198 44.974972 -5.854325 -6.754188 6.002118 -3.593139 5.887092 -7.944502 -4.887840 -15.067862 -6.459173 -0.000001 -0.000001 0.000000 10.355678 -23.152593 8.661066 0.006851 0.250957 -7.394476 0.118693 0.192250 3.996975 0.000001 0.000001 -0.000002 8.990882 -6.697687 6.059109 0.072512 0.537550 -6.146516 -0.013907 -0.026819 3.556356 0.000000 -0.000003 -0.000001 9.066664 11.711292 -4.358457 -0.005129 0.148288 -4.799169 0.060159 0.658166 -5.154012 0.000002 -0.000001 -0.000001 10.957640 24.843975 -7.728277 0.016708 0.141436 -9.637714 0.030440 0.133292 -10.819759 -0.000001 0.000000 -0.000001 -0.232390 23.612621 -32.430824 -99.873123 13.277460 29.820910 164.142464 150.704695 -166.403366 -14.854984 4.552484 -29.070344 -17.997403 12.622535 -22.817995 -3.625231 -5.825015 7.970401 -1.413774 6.233431 1.230187 -0.000000 0.000002 -0.000000 9.267856 12.637254 1.341774 0.001356 -0.224076 2.190465 -0.031312 -0.187191 2.379497 -0.000001 0.000001 -0.000000 8.601717 -0.963202 3.646583 0.030897 -0.534815 4.259324 0.027083 0.004714 4.461663 0.000001 -0.000001 0.000000 10.612070 -18.799124 15.132190 0.007847 -0.226443 15.806023 0.094633 -0.557536 16.283306 0.000000 0.000001 0.000003 10.882695 -26.182422 21.154049 0.053077 -0.204036 24.800849 0.094489 -0.176596 25.979984 -0.000000 -0.000001 0.000002 -94.357861 -12.446834 4.294644 64.636976 -19.199095 -14.110976 13.508392 -10.773246 13.258664 -6.760121 16.372001 -10.229591 0.000000 -0.000001 0.000000 -9.998913 -9.676558 -9.320300 56.846247 -1.403371 -6.658312 -43.299465 -8.272580 19.113605 -30.750034 -1.643426 3.568078 -0.000000 -0.000000 0.000000 
